 <svg
                                                width="24"
                                                height="24"
                                                viewBox="0 0 24 24"
                                                fill="none"
                                                xmlns="http://www.w3.org/2000/svg"
                                                data-name="Laptop"
                                                aria-hidden="true"
                                                focusable="false"
                                            >
                                                <path
                                                    fillRule="evenodd"
                                                    clipRule="evenodd"
                                                    d="M5.0001 6.49964L5.00003 15.2485C4.32836 15.2967 3.66158 15.3517 3.00003 15.4134L3.00011 5.64259C3.00011 5.15287 3.35477 4.7352 3.83802 4.65582C6.44383 4.22777 9.17979 4 12.0001 4C14.8204 4 17.5564 4.22777 20.1622 4.65582C20.6455 4.7352 21.0001 5.15288 21.0001 5.6426L21 15.4134C20.3385 15.3517 19.6717 15.2967 19 15.2485L19.0001 6.49964C16.7553 6.17311 14.4115 6 12.0001 6C9.58874 6 7.24495 6.17311 5.0001 6.49964ZM1.11859 19.6355C4.58689 19.2212 8.23466 19 12 19C15.7653 19 19.413 19.2212 22.8813 19.6355L23.1186 17.6497C19.5701 17.2257 15.8431 17 12 17C8.15686 17 4.42984 17.2257 0.881348 17.6497L1.11859 19.6355Z"
                                                    fill="currentColor"
                                                ></path>
                                            </svg>