 <svg
                                                width="24"
                                                height="24"
                                                viewBox="0 0 24 24"
                                                fill="none"
                                                xmlns="http://www.w3.org/2000/svg"
                                                data-name="Phone"
                                                aria-hidden="true"
                                                focusable="false"
                                            >
                                                <path
                                                    fillRule="evenodd"
                                                    clipRule="evenodd"
                                                    d="M6 0C4.89543 0 4 0.895431 4 2V22C4 23.1046 4.89543 24 6 24H18C19.1046 24 20 23.1046 20 22V2C20 0.89543 19.1046 0 18 0H6ZM6 2L18 2V22H6V2ZM13.5 18.5C13.5 17.6716 12.8284 17 12 17C11.1716 17 10.5 17.6716 10.5 18.5C10.5 19.3284 11.1716 20 12 20C12.8284 20 13.5 19.3284 13.5 18.5Z"
                                                    fill="currentColor"
                                                ></path>
                                            </svg>