 <svg
                                                width="24"
                                                height="24"
                                                viewBox="0 0 24 24"
                                                fill="none"
                                                xmlns="http://www.w3.org/2000/svg"
                                                data-name="Tablet"
                                                aria-hidden="true"
                                                focusable="false"
                                            >
                                                <path
                                                    fillRule="evenodd"
                                                    clipRule="evenodd"
                                                    d="M2 3C0.895431 3 0 3.89543 0 5V19C0 20.1046 0.895431 21 2 21H22C23.1046 21 24 20.1046 24 19V5C24 3.89543 23.1046 3 22 3H2ZM2 5H22V19H2V5ZM18.5 13.5C19.3284 13.5 20 12.8284 20 12C20 11.1716 19.3284 10.5 18.5 10.5C17.6716 10.5 17 11.1716 17 12C17 12.8284 17.6716 13.5 18.5 13.5Z"
                                                    fill="currentColor"
                                                ></path>
                                            </svg>