 <svg
                                                width="24"
                                                height="24"
                                                viewBox="0 0 24 24"
                                                fill="none"
                                                xmlns="http://www.w3.org/2000/svg"
                                                data-name="Tv"
                                                aria-hidden="true"
                                                focusable="false"
                                            >
                                                <path
                                                    fillRule="evenodd"
                                                    clipRule="evenodd"
                                                    d="M2 3C0.895431 3 0 3.89543 0 5V16C0 17.1046 0.895431 18 2 18H22C23.1046 18 24 17.1046 24 16V5C24 3.89543 23.1046 3 22 3H2ZM2 5H22V16H2V5ZM6.06305 21.1859C8.00211 21.0634 9.98427 21 12 21C14.0157 21 15.9979 21.0634 17.937 21.1859L18.063 19.1899C16.0818 19.0647 14.0576 19 12 19C9.94241 19 7.9182 19.0647 5.93695 19.1899L6.06305 21.1859Z"
                                                    fill="currentColor"
                                                ></path>
                                            </svg>